<svg xmlns="http://www.w3.org/2000/svg">
<symbol  id="activity" viewBox="0 0 1024 1024">
    <path d="M518.656 475.904a223.488 223.488 0 0 1-23.296-75.52 366.08 366.08 0 0 1 81.408 14.592 623.104 623.104 0 0 1-58.112 60.928m-69.888-119.04c-11.52-58.112-8.704-55.296-25.6-156.928a265.984 265.984 0 0 0-78.336 46.592c51.2 104.448 60.928 165.376 92.928 290.304 51.2-5.632 211.968-40.704 226.56-130.56 8.704-64-142.336-64-215.04-49.408M486.4 624.128a263.424 263.424 0 0 0-107.52 69.632l43.52 153.6a47.872 47.872 0 0 1-92.928 23.296L216.576 473.088l-72.704-204.8c2.816-5.632 5.888-8.704 8.704-14.336l-14.592-51.2a46.08 46.08 0 0 1 32-57.856A47.616 47.616 0 0 1 228.096 179.2v2.816a334.848 334.848 0 0 1 98.816-43.52c177.152-46.592 203.264 55.04 429.824 23.296L890.368 588.8c-171.52 90.112-232.448-11.52-403.712 35.072" fill="#F39800"></path>
</symbol>
<symbol id="animal" viewBox="0 0 1024 1024">
    <path d="M517.376 465.152a144.924444 144.924444 0 0 1 137.528889 99.214222c1.28 3.925333 2.275556 7.850667 2.901333 11.804445a132.266667 132.266667 0 0 1-14.279111 263.765333h-263.054222a132.266667 132.266667 0 0 1-14.250667-263.793778c0.625778-3.982222 1.592889-7.907556 2.872889-11.776a144.924444 144.924444 0 0 1 137.528889-99.214222h10.752zM420.693333 418.104889c50.261333-3.783111 85.617778-59.164444 79.047111-123.733333-6.599111-64.568889-52.650667-113.891556-102.912-110.108445-50.232889 3.754667-85.617778 59.164444-79.018666 123.733333 6.599111 64.568889 52.650667 113.863111 102.912 110.08zM603.306667 418.104889c50.232889 3.754667 96.284444-45.511111 102.883555-110.108445 6.599111-64.568889-28.785778-119.978667-79.018666-123.733333-50.261333-3.783111-96.312889 45.511111-102.912 110.08-6.599111 64.568889 28.785778 119.978667 79.018666 123.733333zM717.425778 551.139556c39.082667 21.816889 96.910222-4.266667 129.137778-58.225778 32.256-53.959111 26.709333-115.370667-12.373334-137.187556-39.111111-21.816889-96.938667 4.266667-129.166222 58.225778-32.256 53.959111-26.709333 115.370667 12.401778 137.187556zM306.574222 551.139556c39.111111-21.816889 44.657778-83.228444 12.401778-137.187556-32.227556-53.959111-90.055111-80.042667-129.137778-58.225778-39.111111 21.816889-44.657778 83.228444-12.430222 137.187556 32.256 53.959111 90.083556 80.042667 129.166222 58.225778z" fill="#FB7299"></path>
    <path d="M621.511111 113.777778c76.231111-0.938667 138.467556 74.012444 149.504 173.340444 37.745778-13.312 75.861333-12.913778 107.292445 4.323556 70.712889 38.769778 80.753778 147.968 22.442666 243.911111a272.327111 272.327111 0 0 1-71.111111 78.336c9.159111 22.869333 14.222222 47.843556 14.222222 73.984V711.111111a199.111111 199.111111 0 0 1-199.111111 199.111111h-265.500444a199.111111 199.111111 0 0 1-199.111111-199.111111v-23.438222c0-26.168889 5.063111-51.114667 14.222222-74.012445a272.099556 272.099556 0 0 1-71.111111-78.307555c-58.311111-95.943111-48.270222-205.141333 22.442666-243.911111 31.431111-17.237333 69.546667-17.635556 107.320889-4.352C264.021333 187.790222 326.257778 112.839111 402.488889 113.777778c42.410667 0.540444 81.152 24.462222 109.511111 62.776889 28.359111-38.286222 67.100444-62.236444 109.511111-62.776889z" fill="#FFD7E7"></path>
    <path d="M512 465.152a141.198222 141.198222 0 0 1 134.741333 98.958222l0.085334 0.256c1.905778 6.087111 3.015111 12.231111 3.356444 18.289778a132.266667 132.266667 0 0 1-9.728 264.163556h-256.910222a132.266667 132.266667 0 0 1-9.671111-264.192l-0.199111 4.579555c0-7.736889 1.194667-15.445333 3.498666-22.840889l0.085334-0.284444A141.198222 141.198222 0 0 1 512 465.180444zM420.693333 418.104889c50.261333-3.783111 85.617778-59.164444 79.047111-123.733333-6.599111-64.568889-52.650667-113.891556-102.912-110.108445-50.232889 3.754667-85.617778 59.164444-79.018666 123.733333 6.599111 64.568889 52.650667 113.863111 102.912 110.08zM603.306667 418.104889c50.232889 3.754667 96.284444-45.511111 102.883555-110.108445 6.599111-64.568889-28.785778-119.978667-79.018666-123.733333-50.261333-3.783111-96.312889 45.511111-102.912 110.08-6.599111 64.568889 28.785778 119.978667 79.018666 123.733333zM717.425778 551.139556c39.082667 21.816889 96.910222-4.266667 129.137778-58.225778 32.256-53.959111 26.709333-115.370667-12.373334-137.187556-39.111111-21.816889-96.938667 4.266667-129.166222 58.225778-32.256 53.959111-26.709333 115.370667 12.401778 137.187556zM306.574222 551.139556c39.111111-21.816889 44.657778-83.228444 12.401778-137.187556-32.227556-53.959111-90.055111-80.042667-129.137778-58.225778-39.111111 21.816889-44.657778 83.228444-12.430222 137.187556 32.256 53.959111 90.083556 80.042667 129.166222 58.225778z" fill="#FB7299"></path>
</symbol>
<symbol id="anime" viewBox="0 0 1024 1024">
    <path d="M588.8 359.68l-12.032-7.424 150.272-206.592a30.976 30.976 0 0 0-51.2-36.352l-153.6 210.176L281.6 170.24a30.976 30.976 0 1 0-33.024 52.736L486.4 369.92l-22.784 31.488a30.976 30.976 0 1 0 51.2 36.352l25.6-35.072 16.128 9.728A30.976 30.976 0 1 0 588.8 359.68z" fill="#FB813A"></path>
    <path d="M763.648 850.688m-53.248 0a53.248 53.248 0 1 0 106.496 0 53.248 53.248 0 1 0-106.496 0Z" fill="#FB813A"></path>
    <path d="M261.12 797.44a53.248 53.248 0 1 0 53.504 53.248 53.248 53.248 0 0 0-53.504-53.248z" fill="#FB813A"></path>
    <path d="M141.312 314.368m92.928 0l556.288 0q92.928 0 92.928 92.928l0 360.704q0 92.928-92.928 92.928l-556.288 0q-92.928 0-92.928-92.928l0-360.704q0-92.928 92.928-92.928Z" fill="#FDDE80"></path>
    <path d="M520.448 575.232m-128.256 0a128.256 128.256 0 1 0 256.512 0 128.256 128.256 0 1 0-256.512 0Z" fill="#FFFFFF"></path>
    <path d="M476.928 546.56c0-26.88 19.2-37.632 42.24-25.6l49.664 28.672a25.6 25.6 0 0 1 0 48.64l-49.664 28.672c-23.04 13.568-42.24 2.56-42.24-24.32z" fill="#FB813A"></path>
</symbol>
<symbol id="blackroom" viewBox="0 0 1024 1024">
    <path d="M139.264 529.152a27.136 27.136 0 0 1-14.592-2.816A32 32 0 0 1 113.152 486.4l130.816-236.032a28.416 28.416 0 1 1 49.152 28.928l-130.56 235.52a25.6 25.6 0 0 1-23.296 14.336" fill="#F99E4A"></path>
    <path d="M380.416 529.152a34.56 34.56 0 0 1-25.6-14.592l-131.328-235.264a30.208 30.208 0 0 1 11.52-37.632 25.6 25.6 0 0 1 37.888 11.52l130.816 235.264a25.6 25.6 0 0 1-11.776 37.888c-2.816 0-8.704 2.816-11.52 2.816m261.376 0a25.6 25.6 0 0 1-14.336-2.816 29.44 29.44 0 0 1-11.776-37.888l130.816-235.264a28.928 28.928 0 0 1 37.632-11.52 29.44 29.44 0 0 1 11.776 37.632L665.6 514.56a25.6 25.6 0 0 1-23.296 14.592" fill="#F99E4A"></path>
    <path d="M883.968 529.152a34.56 34.56 0 0 1-25.6-14.336l-130.56-235.52a27.392 27.392 0 0 1 11.52-37.632 25.6 25.6 0 0 1 37.888 11.52l130.56 235.52a25.6 25.6 0 0 1-11.776 37.632c-2.816 0-8.704 2.816-11.776 2.816" fill="#F99E4A"></path>
    <path d="M801.536 241.664l-130.56-51.2A129.536 129.536 0 0 0 640 183.552H380.416a153.6 153.6 0 0 0-32 5.632L217.6 241.664A21.248 21.248 0 0 0 226.304 281.6h569.6a21.248 21.248 0 0 0 5.632-40.704M458.752 281.6v520.704a51.2 51.2 0 0 0 104.704 0V281.6z" fill="#FFD043"></path>
    <path d="M561.152 183.296A51.2 51.2 0 0 0 512 139.776a52.992 52.992 0 0 0-51.2 46.336h102.4z" fill="#FFD043"></path>
    <path d="M755.2 877.824H267.008A41.472 41.472 0 0 1 230.4 816.896l55.04-122.112a44.8 44.8 0 0 1 37.888-25.6h373.76a37.12 37.12 0 0 1 37.632 25.6L790.016 819.2a37.888 37.888 0 0 1-34.816 58.112" fill="#F99E4A"></path>
    <path d="M900.352 494.336a9.216 9.216 0 0 1 8.704 8.704 148.48 148.48 0 0 1-296.192 0 7.68 7.68 0 0 1 8.704-8.704z m-502.528 0a9.216 9.216 0 0 1 8.704 8.704 151.808 151.808 0 0 1-148.224 142.336 150.016 150.016 0 0 1-148.224-142.336 7.68 7.68 0 0 1 8.704-8.704z" fill="#FFD043"></path>
</symbol>
<symbol id="car" viewBox="0 0 1024 1024">
    <path d="M210.688 588.8h25.6a51.2 51.2 0 0 1 51.2 45.568l14.08 128A51.2 51.2 0 0 1 256 819.2H225.024a51.2 51.2 0 0 1-51.2-45.568l-14.08-128A51.2 51.2 0 0 1 204.8 588.8zM788.224 588.8h25.6a51.2 51.2 0 0 1 51.2 51.2 41.984 41.984 0 0 1 0 5.632l-14.08 128a51.2 51.2 0 0 1-51.2 45.568h-25.6a51.2 51.2 0 0 1-51.2-51.2 41.984 41.984 0 0 1 0-5.632l14.08-128a51.2 51.2 0 0 1 51.2-45.568zM906.496 392.96a38.656 38.656 0 0 1-25.6 48.128l-25.6 7.424a38.4 38.4 0 0 1-22.528-73.472l25.6-7.424a38.144 38.144 0 0 1 48.128 25.344zM215.296 422.912a38.4 38.4 0 0 1-47.872 25.6l-25.6-7.424a38.656 38.656 0 0 1-25.6-48.128 38.144 38.144 0 0 1 47.872-25.6l25.6 7.424a38.4 38.4 0 0 1 25.6 48.128z" fill="#23ADE5"></path>
    <path d="M292.608 201.216A1109.76 1109.76 0 0 1 512 179.2a1165.568 1165.568 0 0 1 224 22.016 51.2 51.2 0 0 1 38.144 32L870.4 486.4v230.4a25.6 25.6 0 0 1-25.6 25.6H179.2a25.6 25.6 0 0 1-25.6-25.6v-230.4l102.4-253.696a51.2 51.2 0 0 1 36.608-31.488z" fill="#48CFE5"></path>
    <path d="M204.8 512m25.6 0l102.4 0q25.6 0 25.6 25.6l0 25.6q0 25.6-25.6 25.6l-102.4 0q-25.6 0-25.6-25.6l0-25.6q0-25.6 25.6-25.6Z" fill="#FFFFFF"></path>
    <path d="M665.6 512m25.6 0l102.4 0q25.6 0 25.6 25.6l0 25.6q0 25.6-25.6 25.6l-102.4 0q-25.6 0-25.6-25.6l0-25.6q0-25.6 25.6-25.6Z" fill="#FFFFFF"></path>
    <path d="M327.68 270.848a1000.96 1000.96 0 0 1 172.032-14.848 1429.248 1429.248 0 0 1 196.864 15.36 25.6 25.6 0 0 1 20.992 18.176l39.68 134.656a25.6 25.6 0 0 1-17.408 31.744 24.064 24.064 0 0 1-9.472 0q-125.184-12.032-230.4-12.032a1894.4 1894.4 0 0 0-204.8 11.264 25.6 25.6 0 0 1-28.16-22.784 25.6 25.6 0 0 1 0-9.984L307.2 288.768a25.6 25.6 0 0 1 20.48-17.92z" fill="#FDDE80"></path>
    <path d="M614.4 358.4a102.4 102.4 0 0 0-100.864 86.784h51.2a51.2 51.2 0 0 1 99.072 5.12l51.2 4.352A102.4 102.4 0 0 0 614.4 358.4z" fill="#23ADE5"></path>
</symbol>
<symbol id="douga" viewBox="0 0 1024 1024">
    <path d="M273.408 166.912h477.696c58.368 0 105.984 47.616 105.984 105.984v477.696c0 58.368-47.616 105.984-105.984 105.984H273.408c-58.368 0-105.984-47.616-105.984-105.984V273.408C166.912 215.04 215.04 166.912 273.408 166.912z" fill="#7B78EB"></path>
    <path d="M512 525.312v98.816c33.28-14.848 72.704 0.512 87.552 33.792 14.848 33.28-0.512 72.704-33.792 87.552-16.896 7.68-35.84 7.68-53.248 0v111.616H273.408c-58.368 0-105.984-47.616-105.984-105.984V512h137.216c-21.504 19.456-24.064 53.248-4.608 74.752 19.456 21.504 53.248 24.064 74.752 4.608 21.504-18.944 24.064-53.248 4.608-74.752l-4.608-4.608H512v-40.96c-4.096 0.512-9.216 0.512-13.312 0-51.2 0-86.016-47.616-86.016-105.984s20.992-108.032 86.016-108.032h13.312V166.912h238.592c58.368 0 105.984 47.616 105.984 105.984v251.904h-120.832c20.992-23.552 19.456-59.392-3.584-80.896-23.552-20.992-59.392-19.456-80.896 3.584-19.968 21.504-19.968 55.296 0 76.8H512z" fill="#9796ED"></path>
    <path d="M512 525.312v98.816l13.312-4.096c35.84-7.68 72.704 15.872 79.872 52.224 7.68 35.84-18.432 72.192-54.272 78.848-4.096 1.024-8.704 1.024-13.312 1.024-9.216 0-16.384-3.072-25.088-6.144v111.616h-14.336v-132.608l18.432 8.192c27.136 11.776 58.368-0.512 70.144-27.648 11.776-27.136-0.512-58.368-27.648-70.144-13.312-5.632-28.672-5.632-42.496 0l-18.432 8.192v-117.76H399.872c14.848 33.28-0.512 72.704-33.792 87.552-33.28 14.848-72.704-0.512-87.552-33.792-7.68-16.896-7.68-35.84 0-53.248H166.912V512h137.216c-21.504 19.456-24.064 53.248-4.608 74.752 19.456 21.504 53.248 24.064 74.752 4.608 21.504-19.456 24.064-53.248 4.608-74.752l-4.608-4.608H512v-39.936h-13.312c-51.2 0-86.016-47.104-86.016-105.984s20.992-109.568 86.016-109.568h13.312V166.912h13.312v105.984h-26.624c-49.664 0-73.216 33.28-73.216 94.208 0 53.248 30.72 92.672 73.216 92.672 3.584 0.512 7.68 0.512 11.264 0l15.36-2.048V512h102.912c-13.824-35.84 4.096-76.8 40.448-90.624 35.84-13.824 76.8 4.096 90.624 40.448 6.144 15.872 6.144 33.792 0 50.176h97.792v13.312h-120.832c20.992-23.552 19.456-59.392-3.584-80.896-23.552-20.992-59.392-19.456-80.896 3.584-19.968 21.504-19.968 55.296 0 76.8H512z" fill="#6A68C6"></path>
    <path d="M444.928 693.248c-23.04 13.312-52.224 5.12-65.024-17.408-4.096-7.68-6.144-15.36-6.144-24.064V392.192c0-26.624 20.992-47.616 47.616-47.616 8.704 0 16.896 2.048 24.576 6.656l221.696 132.608c23.04 13.312 30.208 42.496 16.896 65.024-4.096 6.656-10.24 12.8-16.896 16.896" fill="#FDDE80"></path>
</symbol>
<symbol id="cinephile" viewBox="0 0 1024 1024">
    <path d="M147.2 201.728m79.616 0l571.136 0q79.616 0 79.616 79.616l0 458.24q0 79.616-79.616 79.616l-571.136 0q-79.616 0-79.616-79.616l0-458.24q0-79.616 79.616-79.616Z" fill="#9796ED"></path>
    <path d="M222.976 269.312h77.056v57.856H222.976zM390.144 269.312h77.056v57.856h-77.056zM557.312 269.312h77.056v57.856h-77.056zM724.48 269.312h77.056v57.856H724.48zM222.976 693.76h77.056v57.856H222.976zM390.144 693.76h77.056v57.856h-77.056zM557.312 693.76h77.056v57.856h-77.056zM147.2 375.296h730.368v270.08H147.2z" fill="#7B78EA"></path>
    <path d="M521.369822 529.707066m23.351494-23.351495l2.534271-2.53427q23.351494-23.351494 46.702989 0l199.664327 199.664327q23.351494 23.351494 0 46.702989l-2.534271 2.534271q-23.351494 23.351494-46.702988 0l-199.664328-199.664328q-23.351494-23.351494 0-46.702989Z" fill="#FFD043"></path>
    <path d="M708.352 418.816h-25.6v-24.32a13.568 13.568 0 0 0-13.568-13.568H665.6a13.312 13.312 0 0 0-13.312 13.568v24.32h-25.6a13.568 13.568 0 0 0-13.568 13.568v5.632a13.568 13.568 0 0 0 13.568 13.568h25.6v24.32a13.312 13.312 0 0 0 13.312 13.568h5.632a13.568 13.568 0 0 0 13.568-13.568v-24.32h25.6a13.312 13.312 0 0 0 13.312-13.568v-5.632a13.312 13.312 0 0 0-15.36-13.568zM517.888 418.816h-25.6v-24.32a13.312 13.312 0 0 0-13.312-13.568h-5.632a13.568 13.568 0 0 0-13.568 13.568v24.32H435.2a13.312 13.312 0 0 0-13.312 13.568v5.632a13.312 13.312 0 0 0 13.312 13.568h25.6v24.32a13.568 13.568 0 0 0 13.568 13.568h5.632a13.312 13.312 0 0 0 13.312-13.568v-24.32h25.6a13.312 13.312 0 0 0 13.312-13.568v-5.632a13.312 13.312 0 0 0-14.336-13.568zM493.568 572.16h-18.432v-18.432a10.24 10.24 0 0 0-10.24-10.24H460.8a10.24 10.24 0 0 0-10.24 10.24v18.432h-18.432a10.24 10.24 0 0 0-10.24 10.24v4.352a10.24 10.24 0 0 0 10.24 10.24h18.432V614.4a10.24 10.24 0 0 0 10.24 10.24h4.352a10.24 10.24 0 0 0 10.24-10.24v-18.432h18.432a10.24 10.24 0 0 0 10.24-10.24v-4.352a10.24 10.24 0 0 0-10.496-9.216z" fill="#FFD778"></path>
</symbol>
<symbol id="column" viewBox="0 0 1024 1024">
    <path d="M778.496 142.08h-537.6a56.832 56.832 0 0 0-60.16 54.016v630.528a56.832 56.832 0 0 0 59.136 54.016h537.6a56.832 56.832 0 0 0 59.136-54.016V196.096a56.832 56.832 0 0 0-59.136-54.016z" fill="#54E2E2"></path>
    <path d="M298.496 679.168h421.376a25.6 25.6 0 0 0 0-52.736H298.496a25.6 25.6 0 1 0 0 52.736zM719.872 732.928H298.496a25.6 25.6 0 1 0 0 52.736h421.376a25.6 25.6 0 0 0 0-52.736z" fill="#23ADE5"></path>
    <path d="M272.128 237.056m80.128 0l314.112 0q80.128 0 80.128 80.128l0 154.368q0 80.128-80.128 80.128l-314.112 0q-80.128 0-80.128-80.128l0-154.368q0-80.128 80.128-80.128Z" fill="#23ADE5"></path>
    <path d="M404.992 361.472m-49.408 0a49.408 49.408 0 1 0 98.816 0 49.408 49.408 0 1 0-98.816 0Z" fill="#2EC3E5"></path>
    <path d="M375.552 551.936l120.832-144.384a44.544 44.544 0 0 1 68.352 0l120.832 144.384z" fill="#2EC3E5"></path>
</symbol>
<symbol id="life" viewBox="0 0 1024 1024">
    <path d="M881.408 664.064V504.32a168.192 168.192 0 0 0-128-162.56l-7.936-1.792v144.896a12.288 12.288 0 0 1-14.592 11.776 170.752 170.752 0 0 0-30.464-2.816h-138.752v-27.648a37.632 37.632 0 0 1 11.776-27.648 175.872 175.872 0 0 0 57.856-135.68A179.2 179.2 0 0 0 460.8 132.352a175.872 175.872 0 0 0-180.992 176.128V409.6h32.256a225.536 225.536 0 0 0 15.872 19.2 36.608 36.608 0 0 1 9.472 25.6v42.496A193.792 193.792 0 0 0 179.2 712.96a197.12 197.12 0 0 0 197.12 166.656h325.12a148.48 148.48 0 0 0 45.568-6.144 217.088 217.088 0 0 0 64.256-31.744 176.896 176.896 0 0 0 18.176-15.616l4.608-4.352a156.16 156.16 0 0 0 47.36-111.872v-35.84c0.512-3.072 0.256-6.656 0-9.984z" fill="#FFD778"></path>
    <path d="M468.736 238.592a40.192 40.192 0 1 0 40.192 40.192 40.192 40.192 0 0 0-40.192-40.192zM323.584 362.752H217.6a34.816 34.816 0 1 0 0 69.376h106.24a34.816 34.816 0 1 0 0-69.376z" fill="#FB813A"></path>
</symbol>
<symbol id="dance" viewBox="0 0 1024 1024">
    <path d="M956.672 513.792a476.416 476.416 0 0 0-890.368 0L512 727.296l-95.232 45.568a117.76 117.76 0 0 0 192.256 0L512 727.04z" fill="#FC6B8A"></path>
    <path d="M512 727.296l208.64-99.84a222.976 222.976 0 0 0-416.768 0z" fill="#FFFFFF"></path>
    <path d="M405.4528 751.5392l541.184-258.5856 14.0288 29.312-541.184 258.6112z" fill="#FF5C7A"></path>
    <path d="M666.624 545.792l-18.688-15.36-112.64 135.424 40.192-173.056-23.552-5.632-40.192 172.544-40.448-172.544-23.808 5.632 40.704 173.056-112.896-135.424-18.688 15.36 111.616 134.144-391.68-186.88-13.824 29.184 541.184 258.56 14.08-29.44-87.552-41.728 136.192-163.84z" fill="#F14767"></path>
</symbol>
<symbol id="food" viewBox="0 0 1024 1024">
    <path d="M192.075294 503.883294m-75.294118 0a75.294118 75.294118 0 1 0 150.588236 0 75.294118 75.294118 0 1 0-150.588236 0Z" fill="#FA942D"></path>
    <path d="M342.663529 411.211294m-75.294117 0a75.294118 75.294118 0 1 0 150.588235 0 75.294118 75.294118 0 1 0-150.588235 0Z" fill="#FA942D"></path>
    <path d="M284.747294 480.722824m-75.294118 0a75.294118 75.294118 0 1 0 150.588236 0 75.294118 75.294118 0 1 0-150.588236 0Z" fill="#FE5D79"></path>
    <path d="M765.470118 532.841412m-127.427765 0a127.427765 127.427765 0 1 0 254.855529 0 127.427765 127.427765 0 1 0-254.855529 0Z" fill="#FA942D"></path>
    <path d="M632.259765 457.547294m-133.210353 0a133.210353 133.210353 0 1 0 266.420706 0 133.210353 133.210353 0 1 0-266.420706 0Z" fill="#FA942D"></path>
    <path d="M672.798118 556.016941m-150.588236 0a150.588235 150.588235 0 1 0 301.176471 0 150.588235 150.588235 0 1 0-301.176471 0Z" fill="#FE5D79"></path>
    <path d="M932.291765 474.925176a28.762353 28.762353 0 0 1 28.747294 28.762353l-0.045177 1.355295-0.090353 1.355294c-14.305882 150.919529-130.605176 272.865882-280.741647 299.188706l20.178824 80.745411a23.160471 23.160471 0 0 1-22.467765 28.777412H343.371294a23.160471 23.160471 0 0 1-22.467765-28.777412l20.178824-80.745411C192.813176 779.595294 77.552941 660.329412 60.928 512.015059l-0.557176-5.376a28.958118 28.958118 0 0 1 28.822588-31.713883h843.083294z" fill="#FDDC7A"></path>
    <path d="M442.548706 196.924235h136.146823c21.263059 0 39.800471 14.456471 44.950589 35.087059l60.732235 242.913882H336.865882l60.732236-242.898823a46.336 46.336 0 0 1 44.950588-35.102118z" fill="#F6C338"></path>
    <path d="M688.037647 192.903529c9.441882-30.177882 28.385882-29.409882 34.680471-47.585882 7.062588-20.449882 9.366588-45.718588 6.927058-75.821176 16.850824 17.935059 25.976471 37.014588 30.945883 62.283294 4.894118 24.937412-9.125647 44.182588-29.06353 74.480941-19.922824 30.313412-8.809412 67.614118 0 94.915765-16.850824-17.92-59.904-55.777882-43.474823-108.272942zM283.361882 154.247529c11.324235-37.707294 34.063059-36.773647 41.60753-59.482353 8.493176-25.554824 11.264-57.133176 8.31247-94.765176 20.239059 22.407529 31.201882 46.260706 37.165177 77.854118 5.872941 31.171765-10.947765 55.220706-34.876235 93.108706-23.943529 37.872941-10.601412 84.48 0 118.633411-20.239059-22.422588-71.936-69.722353-52.208942-135.348706z" fill="#C6D2E1"></path>
    <path d="M510.629647 706.605176a92.672 92.672 0 0 1 92.672 92.672v115.832471H417.957647v-115.832471a92.672 92.672 0 0 1 92.672-92.672z" fill="#F5BC20"></path>
</symbol>
<symbol id="documentary" viewBox="0 0 1024 1024">
    <path d="M404.9 386.765c-70.8975-2.565-143.3475 12.06-196.65 38.1825-48.8475 23.9625-117.63 89.46-121.9275 135.5625h735.3225c-3.2175 0-12.015-9.4275-14.7375-11.52-5.0175-3.825-9.7425-7.8075-14.76-11.5425-11.9025-8.91-24.66-16.8975-37.1475-24.975a1040.175 1040.175 0 0 0-77.0625-45.585c-52.47-27.945-107.865-50.805-165.69-65.0025a533.88 533.88 0 0 0-107.3475-15.12" fill="#47CFE5"></path>
    <path d="M744.605 489.1625c-12.7125 32.31-136.71 36.765-181.395 36.765H137.8025c-15.2325 0-29.7675 5.1975-39.7575 14.265-9.9 8.9775-14.1075 20.7675-11.7 32.355 0 0.1125 0 0.27 0.09 0.3375 9.2925 43.6725 35.73 83.34 76.365 114.6825 1.62 1.26 3.2625 2.52 4.9275 3.735 106.74 78.4575 292.5225 81.1575 423.45 43.875 41.445-11.79 80.865-28.17 115.1775-49.635 38.9925-24.39 78.795-57.3075 102.3075-91.7325 3.465-5.0625 41.22-61.1775 41.9625-60.885l-106.02-43.7625z" fill="#47CFE5"></path>
    <path d="M918.0575 505.3175l-29.88-17.0775a75.0825 75.0825 0 0 0-70.11-2.1375 75.375 75.375 0 0 0-37.4175-59.355l-29.925-17.0775a11.4525 11.4525 0 0 0-15.66 4.275l-7.83 13.7025a59.0625 59.0625 0 0 0 21.96 80.5725l15.795 9.045a0.045 0.045 0 0 1-0.045 0.045l51.48 29.43 0.045-0.045 17.46 9.99a59.085 59.085 0 0 0 80.5725-21.9375l7.83-13.725a11.5425 11.5425 0 0 0-4.275-15.705" fill="#2BBAE4"></path>
    <path d="M654.515 712.4975C351.3275 720.8675 266.3 564.425 266.3 564.425H85.7825a31.995 31.995 0 0 0 0.63 8.46c9.2925 43.6725 35.73 83.34 76.365 114.6825 1.62 1.2825 3.2625 2.52 4.9275 3.735 106.7175 78.4575 292.5 81.18 423.4275 43.875a509.6925 509.6925 0 0 0 63.3825-22.68" fill="#E5E6E6"></path>
    <path d="M654.515 712.4975c-65.16 1.8-120.15-4.41-166.5675-14.2425-49.005-10.3725-26.1675 59.31-3.2175 56.79 37.485-4.0725 73.665-10.5975 106.4025-19.9125a502.3575 502.3575 0 0 0 63.3825-22.635" fill="#E4E5E4"></path>
    <path d="M407.1275 674.9225c21.5775 69.84 69.705 117.6525 116.775 113.6475 3.735-0.3375 6.2325-4.0725 5.5125-7.74l-24.435-125.6175a5.715 5.715 0 0 0-6.6825-4.5l-86.715 16.8975a5.7825 5.7825 0 0 0-4.455 7.3125" fill="#47CFE5"></path>
    <path d="M441.2375 614.7125a29.295 29.295 0 1 1-58.6125 0.0225 29.295 29.295 0 0 1 58.6125-0.0225" fill="#0099BC"></path>
    <path d="M252.5975 310.4675a64.2825 64.2825 0 0 1 64.305-64.1025c18.81 0 35.73 8.1225 47.52 21.1275a64.17 64.17 0 0 1 111.7125 42.975 16.56 16.56 0 0 1-16.5825 16.5825 16.56 16.56 0 0 1-16.605-16.5825 31.05 31.05 0 0 0-61.9875-2.16h-0.18l0.1125 77.4675a16.5825 16.5825 0 1 1-33.1875 0v-75.3975c0-17.0325-13.9275-30.9375-30.96-30.9375a31.05 31.05 0 0 0-31.0275 31.0275 16.56 16.56 0 1 1-33.12 0" fill="#47CFE5"></path>
    <path d="M364.3325 408.0275a22.2525 22.2525 0 0 1-22.2075-22.23V310.4a25.3575 25.3575 0 1 0-50.715 0.09 22.23 22.23 0 0 1-44.415 0c0-38.4525 31.365-69.75 69.9075-69.75a69.75 69.75 0 0 1 47.52 18.765 70.2 70.2 0 0 1 47.61-18.765c38.4525 0 69.75 31.2975 69.75 69.75a22.23 22.23 0 0 1-44.4375 0 25.425 25.425 0 0 0-50.7375-1.7775l-0.1575 2.385 0.09 74.7a22.2525 22.2525 0 0 1-22.2075 22.23z m-47.5425-134.19c20.16 0 36.5625 16.4025 36.5625 36.5625v75.42a10.98 10.98 0 1 0 21.915 0l-0.09-83.0925h0.9225a36.7425 36.7425 0 0 1 35.82-28.8675c20.205 0 36.6525 16.4475 36.6525 36.6525a10.98 10.98 0 0 0 21.9375 0c0-32.265-26.235-58.5-58.5-58.5-16.4475 0-32.2875 7.02-43.4475 19.305l-4.1625 4.545-4.1625-4.6125a58.635 58.635 0 0 0-43.335-19.2825 58.635 58.635 0 0 0-58.6575 58.5 10.9575 10.9575 0 0 0 21.915 0 36.675 36.675 0 0 1 36.63-36.63z" fill="#47CFE5"></path>
    <path d="M389.87 621.2825h-66.33a47.79 47.79 0 0 1-35.0325-15.5925l-23.715-25.695a28.575 28.575 0 0 0-20.88-9.2925H91.0475a6.525 6.525 0 1 1 0-13.095h152.8875c11.4525 0 22.5675 4.9275 30.4875 13.5225l23.715 25.7175c6.66 7.2 15.93 11.34 25.425 11.34h66.33a6.525 6.525 0 1 1-0.0225 13.095" fill="#0099BC"></path>
</symbol>
<symbol id="ent" viewBox="0 0 1024 1024">
    <path d="M534.442796 378.982175m36.203867 36.203867l30.592268 30.592268q36.203867 36.203867 0 72.407734l-360.590518 360.590518q-36.203867 36.203867-72.407734 0l-30.592268-30.592268q-36.203867-36.203867 0-72.407735l360.590518-360.590517q36.203867-36.203867 72.407734 0Z" fill="#FF8693"></path>
    <path d="M369.92 543.744l137.472-137.472a38.912 38.912 0 0 1 54.528 0l48.384 48.64a38.4 38.4 0 0 1 0 54.528l-137.984 137.984z" fill="#FC6376"></path>
    <path d="M286.133941 631.021801m12.854616 12.85013l72.601422 72.576083q12.854616 12.850129 0.004486 25.704746l-1.62889 1.629458q-12.850129 12.854616-25.704745 0.004486l-72.601422-72.576083q-12.854616-12.850129-0.004486-25.704745l1.62889-1.629459q12.850129-12.854616 25.704745-0.004486Z" fill="#FFA9B1"></path>
    <path d="M737.024 547.584a99.328 99.328 0 0 1 62.72-62.72l51.2-13.568a27.136 27.136 0 0 0 13.056-49.664L826.624 384a98.816 98.816 0 0 1-22.784-85.76l16.896-63.232c7.168-27.136-8.96-43.52-36.096-36.096l-63.232 16.896a98.816 98.816 0 0 1-85.76-23.04l-37.376-36.864a27.136 27.136 0 0 0-49.408 13.312l-13.824 51.2a97.792 97.792 0 0 1-62.464 62.72l-51.2 13.824a27.136 27.136 0 0 0-13.312 49.408L445.44 384a97.536 97.536 0 0 1 23.04 85.504l-16.896 63.232c-7.424 27.392 8.96 43.52 36.096 36.352l63.232-16.896a97.792 97.792 0 0 1 85.76 22.784l37.376 37.376a26.88 26.88 0 0 0 49.408-13.312z" fill="#FDDE80"></path>
    <path d="M886.272 417.536l-74.752-75.008 30.464-114.432a41.216 41.216 0 0 0-8.704-41.472A41.728 41.728 0 0 0 791.808 179.2l-114.432 30.72-74.752-76.032A41.728 41.728 0 0 0 563.2 120.576a41.216 41.216 0 0 0-28.416 31.488l-27.392 102.4L404.48 281.6a42.24 42.24 0 0 0-31.744 28.16 42.24 42.24 0 0 0 13.312 40.448L460.8 425.216l-30.72 114.432a41.728 41.728 0 0 0 8.96 41.472 37.888 37.888 0 0 0 27.392 10.752 56.832 56.832 0 0 0 14.08-2.048l114.432-30.72 74.752 75.008a45.824 45.824 0 0 0 31.232 14.336 34.304 34.304 0 0 0 8.96 0 41.216 41.216 0 0 0 28.416-31.488l27.392-102.4 102.4-27.392a41.984 41.984 0 0 0 31.488-28.416 40.96 40.96 0 0 0-13.312-41.216z m-84.736-203.52h5.12a16.896 16.896 0 0 1 0 5.12l-25.6 93.696-72.96-73.728z m-32 139.776l-34.56 128-128 34.56-102.4-102.4 34.56-128 128-34.56z m-199.424-192c0-2.56 1.792-4.096 1.792-4.608a9.984 9.984 0 0 1 4.096 3.072l59.648 59.648-87.296 23.296z m-157.696 162.048L409.6 320a12.8 12.8 0 0 1 4.864-2.048l81.152-21.76-23.552 87.808z m58.368 230.4a18.944 18.944 0 0 1-5.12 0 17.92 17.92 0 0 1 0-5.12l25.6-93.696L563.2 528.64z m230.4 51.2c0 2.816-1.536 4.096-1.536 4.864a20.992 20.992 0 0 1-4.352-3.328l-59.392-59.392 87.296-23.552z m156.16-156.16l-81.152 21.76 23.296-87.04 59.392 59.392a40.96 40.96 0 0 1 3.328 3.84 12.8 12.8 0 0 1-4.096 2.56z" fill="#FCC029"></path>
</symbol>
<symbol id="fashion" viewBox="0 0 1024 1024">
    <path d="M691.2 204.8a44.032 44.032 0 0 1 29.952 34.048 117.76 117.76 0 0 1-13.056 76.8s-19.2 29.952-24.32 39.936a235.008 235.008 0 0 0-25.6 107.008v40.704H365.312v-39.424a235.008 235.008 0 0 0-25.6-107.008c-5.12-9.984-24.32-39.936-24.32-39.936a117.76 117.76 0 0 1-13.056-76.8A44.544 44.544 0 0 1 336.896 204.8V147.712a29.952 29.952 0 0 1 27.136-31.744 29.952 29.952 0 0 1 27.648 31.744v73.728A237.056 237.056 0 0 0 512 253.952a241.408 241.408 0 0 0 125.184-35.072V147.712a27.136 27.136 0 1 1 53.76 0z" fill="#FF6A9B"></path>
    <path d="M658.432 487.936H365.312L204.8 780.288a36.352 36.352 0 0 0 10.24 46.592 492.288 492.288 0 0 0 595.456 0 36.608 36.608 0 0 0 8.704-47.36z" fill="#FF9DC6"></path>
    <path d="M409.6 537.6a9.984 9.984 0 0 0-13.568 4.608l-124.16 250.624a10.496 10.496 0 0 0 4.608 13.568 14.848 14.848 0 0 0 4.608 0 9.984 9.984 0 0 0 8.96-5.632l124.16-250.88A10.24 10.24 0 0 0 409.6 537.6zM455.936 643.072a9.984 9.984 0 0 0-12.032 7.424l-40.448 170.752a10.24 10.24 0 0 0 7.424 12.288h2.304a9.728 9.728 0 0 0 9.728-7.936l40.448-170.752a9.984 9.984 0 0 0-7.424-11.776zM750.848 791.808l-124.16-250.624A9.984 9.984 0 0 0 614.4 537.6a10.24 10.24 0 0 0-4.608 13.312l124.16 250.88a9.984 9.984 0 0 0 8.96 5.632 14.848 14.848 0 0 0 4.608 0 10.496 10.496 0 0 0 3.328-15.616zM579.84 650.496a9.984 9.984 0 0 0-19.456 4.608l40.448 170.752a9.728 9.728 0 0 0 9.728 7.936h2.304a10.24 10.24 0 0 0 7.424-12.288z" fill="#FF6A9B"></path>
</symbol>
<symbol id="favorite" viewBox="0 0 1024 1024">
    <path d="M215.04 153.6h593.92c33.93024 0 61.44 27.50976 61.44 61.44v643.3792a30.72 30.72 0 0 1-45.96224 26.6752L512 706.56l-312.43776 178.5344A30.72 30.72 0 0 1 153.6 858.4192V215.04c0-33.93024 27.50976-61.44 61.44-61.44z" fill="#9696ED"></path>
    <path d="M512 555.392l-90.05056 46.60736a19.27168 19.27168 0 0 1-27.84256-20.41856l17.12128-98.2784-72.2432-69.32992a19.27168 19.27168 0 0 1 10.61376-32.98304l100.1216-14.32064 45.05088-89.8816a19.27168 19.27168 0 0 1 34.4576 0l45.05088 89.8816 100.11648 14.32064a19.27168 19.27168 0 0 1 10.61888 32.98304l-72.2432 69.32992 17.12128 98.2784a19.27168 19.27168 0 0 1-27.84768 20.41856L512 555.392z" fill="#FFD778"></path>
</symbol>
<symbol id="game" viewBox="0 0 1024 1024">
    <path d="M166.4 166.144m90.112 0l510.976 0q90.112 0 90.112 90.112l0 510.976q0 90.112-90.112 90.112l-510.976 0q-90.112 0-90.112-90.112l0-510.976q0-90.112 90.112-90.112Z" fill="#58D598"></path>
    <path d="M307.2 325.632h136.448v136.448H307.2zM580.096 325.632h136.448v136.448h-136.448z" fill="#17AD8A"></path>
    <path d="M443.648 462.336v75.776h-64.256v204.544h59.392v-68.096H585.216v68.096h59.136v-204.544h-64.256v-75.776h-136.448z" fill="#17AD8A"></path>
</symbol>
<symbol id="guochuang" viewBox="0 0 1024 1024">
    <path d="M873.472 321.792c-46.08-46.592-102.4-73.472-161.536-40.192a177.152 177.152 0 0 0-51.2-161.536s-83.456 107.52-15.104 219.648c-12.288 13.568-24.32 27.136-36.352 39.424-26.88 27.136 14.592 69.12 41.216 41.984l68.608-69.632c40.704-40.96 76.8-23.808 112.896 12.288 26.624 26.88 68.096-15.104 41.472-41.984z" fill="#58D598"></path>
    <path d="M705.024 344.576a189.696 189.696 0 0 0-270.848 0 195.072 195.072 0 0 0-41.216 62.464 249.088 249.088 0 0 0-177.664 74.496 256 256 0 0 0 0 359.68 248.576 248.576 0 0 0 354.816 0 256 256 0 0 0 73.472-179.2 190.976 190.976 0 0 0 61.44-41.728 195.84 195.84 0 0 0 0-275.712z" fill="#FF5C7A"></path>
    <path d="M514.304 808.704a187.136 187.136 0 0 1-267.264-5.12 193.536 193.536 0 0 1 5.12-271.104s-45.056 120.832 43.776 214.272a210.176 210.176 0 0 0 218.368 61.952" fill="#F14767"></path>
</symbol>
<symbol id="kichiku" viewBox="0 0 1024 1024">
    <path d="M918.784 510.208a187.904 187.904 0 0 0-88.832-159.488 156.416 156.416 0 0 0 1.792-22.016 150.784 150.784 0 0 0-210.944-138.496 151.04 151.04 0 0 0-216.32 0 150.784 150.784 0 0 0-210.944 138.496 156.416 156.416 0 0 0 1.792 22.016 187.648 187.648 0 0 0-13.824 309.504v1.536a215.296 215.296 0 0 0 332.8 179.2 215.04 215.04 0 0 0 332.8-179.2v-2.56a187.904 187.904 0 0 0 71.68-148.992z" fill="#FC6B8A"></path>
    <path d="M680.704 479.744A150.528 150.528 0 0 1 572.672 435.2a150.016 150.016 0 0 1-120.064 0 150.528 150.528 0 0 1-108.032 45.824h-11.264v167.168a166.4 166.4 0 0 0 165.888 165.888h33.536a166.4 166.4 0 0 0 165.888-165.888v-169.728a137.216 137.216 0 0 1-17.92 1.28z" fill="#FFFFFF"></path>
    <path d="M510.464 651.264m-33.536 0a33.536 33.536 0 1 0 67.072 0 33.536 33.536 0 1 0-67.072 0Z" fill="#E2006C"></path>
    <path d="M635.904 554.496H614.4v-21.504a12.032 12.032 0 0 0-11.776-11.776h-4.864a12.032 12.032 0 0 0-11.776 11.776v21.504h-21.248a11.776 11.776 0 0 0-11.776 11.52v5.12a11.776 11.776 0 0 0 11.776 11.52h21.248v21.504a12.032 12.032 0 0 0 11.776 11.776h4.864a12.032 12.032 0 0 0 11.776-11.776v-21.504h21.248a11.776 11.776 0 0 0 11.776-11.52v-5.12a11.776 11.776 0 0 0-11.52-11.52zM455.936 554.496H435.2v-21.504a12.032 12.032 0 0 0-11.776-11.776h-4.864a12.032 12.032 0 0 0-11.776 11.776v21.504H384a11.776 11.776 0 0 0-11.776 11.52v5.12a11.776 11.776 0 0 0 11.776 11.52h21.248v21.504a12.032 12.032 0 0 0 11.776 11.776h4.864a12.032 12.032 0 0 0 13.312-11.776v-21.504h21.248a11.52 11.52 0 0 0 11.776-11.52v-5.12a11.52 11.52 0 0 0-12.288-11.52z" fill="#FF5C7A"></path>
    <path d="M600.32 651.008a12.288 12.288 0 0 0-12.288 12.544c0 34.048-34.816 61.696-76.8 61.696s-76.8-27.648-76.8-61.696a12.544 12.544 0 1 0-25.6 0c0 47.616 45.824 86.528 102.4 86.528s102.4-38.912 102.4-86.528a12.544 12.544 0 0 0-13.312-12.544z" fill="#EB53A8"></path>
</symbol>
<symbol id="knowledge" viewBox="0 0 1024 1024">
    <path d="M492.270933 147.729067A255.342933 255.342933 0 0 1 627.2 620.2624v51.2a37.546667 37.546667 0 0 1-25.6 34.133333h-221.866667a44.654933 44.654933 0 0 1-25.6-34.133333v-51.2a256.648533 256.648533 0 0 1 138.1376-472.533333z" fill="#FFA200"></path>
    <path d="M550.4 534.929067v-76.8h51.2c46.609067 0 51.2-26.786133 51.2-42.666667v-128c0-23.1168-17.2032-42.666667-51.2-42.666667h-213.333333c-42.103467 0-59.733333 21.111467-59.733334 42.666667v76.8h102.4v-68.266667h119.466667v119.466667h-51.2c-60.501333-0.5632-76.8 24.405333-76.8 42.666667v76.8h128z m-62.6688 24.533333a59.733333 59.733333 0 1 1-59.733333 59.733333 59.733333 59.733333 0 0 1 59.733333-59.733333z" fill="#FFF0D3"></path>
    <path d="M354.133333 739.7376h273.066667v8.533333a128 128 0 0 1-128 128h-17.066667a128 128 0 0 1-128-128v-8.533333z" fill="#5FB5EC"></path>
    <path d="M746.666667 210.6624h119.466666a17.066667 17.066667 0 0 1 0 34.133333h-119.466666a17.066667 17.066667 0 0 1 0-34.133333z m59.733333-59.733333a17.066667 17.066667 0 0 1 17.066667 17.066666v119.466667a17.066667 17.066667 0 0 1-34.133334 0v-119.466667a17.066667 17.066667 0 0 1 17.066667-17.066666z" fill="#FFE074"></path>
    <path d="M157.866667 662.929067h119.466666a17.066667 17.066667 0 0 1 0 34.133333h-119.466666a17.066667 17.066667 0 0 1 0-34.133333z m59.733333-59.733334a17.066667 17.066667 0 0 1 17.066667 17.066667v119.466667a17.066667 17.066667 0 0 1-34.133334 0v-119.466667a17.066667 17.066667 0 0 1 17.066667-17.066667z" fill="#FFE074"></path>
    <path d="M200.533333 662.9376h34.133334v34.133333h-34.133334z" fill="#FFE074"></path>
    <path d="M789.333333 210.670933h34.133334v34.133334h-34.133334z" fill="#FFE074"></path>
</symbol>
<symbol id="lesson" viewBox="0 0 1024 1024">
    <path d="M781.3671875 132.3125C842.2859375 132.3125 891.6875 182.684375 891.6875 244.8265625v533.334375c0 62.1-49.359375 112.471875-110.3203125 112.471875H518.75c0-16.115625-25.6921875-29.1515625-57.375-29.1515625-31.6828125 0-57.375 13.078125-57.375 29.1515625H284.8203125C223.9015625 890.6328125 174.5 840.2609375 174.5 778.203125V244.8265625C174.5 182.684375 223.859375 132.3125 284.8203125 132.3125h496.546875z" fill="#FBC92A"></path>
    <path d="M781.3671875 132.3125C842.2859375 132.3125 891.6875 182.684375 891.6875 244.8265625v209.671875c-49.4859375 4.89375-86.0625 22.021875-86.0625 42.3984375 0 20.3765625 36.5765625 37.546875 86.0625 42.35625v34.7203125c0 62.1421875-49.359375 112.5140625-110.3203125 112.5140625H284.8203125C223.9015625 686.4875 174.5 636.115625 174.5 573.9734375V244.8265625C174.5 182.684375 223.859375 132.3125 284.8203125 132.3125h496.546875z" fill="#FFEA85"></path>
    <path d="M346.625 686.4875a114.75 58.3453125 0 1 0 229.5 0 114.75 58.3453125 0 1 0-229.5 0Z" fill="#FBC92A"></path>
    <path d="M260.5625 803.1359375a43.03125 42.1875 0 1 0 86.0625 0 43.03125 42.1875 0 1 0-86.0625 0Z" fill="#F4B828"></path>
    <path d="M490.0625 803.1359375a71.71875 42.1875 0 1 0 143.4375 0 71.71875 42.1875 0 1 0-143.4375 0Z" fill="#F4B828"></path>
    <path d="M674.50625 477.4484375a27.2109375 27.2109375 0 0 1 39.0234375 1.2234375 28.51875 28.51875 0 0 1-1.18125 39.740625 238.021875 238.021875 0 0 1-330.91875 0 28.51875 28.51875 0 0 1-1.18125-39.740625 27.2109375 27.2109375 0 0 1 38.98125-1.2234375 183.6421875 183.6421875 0 0 0 255.2765625 0z" fill="#FBC92A"></path>
    <path d="M734.7921875 272.9234375h5.1890625a41.765625 41.765625 0 0 1 41.34375 42.1875v56.278125c0 23.2875-18.478125 42.1875-41.34375 42.1875h-5.1890625a41.765625 41.765625 0 0 1-41.34375-42.1875V315.1109375c0-23.2875 18.5203125-42.1875 41.34375-42.1875zM353.796875 272.9234375h5.1890625a41.765625 41.765625 0 0 1 41.34375 42.1875v56.278125c0 23.2875-18.5203125 42.1875-41.34375 42.1875H353.796875a41.765625 41.765625 0 0 1-41.34375-42.1875V315.1109375c0-23.2875 18.478125-42.1875 41.34375-42.1875z" fill="#FBC92A"></path>
</symbol>
<symbol id="live" viewBox="0 0 1024 1024">
    <path d="M392.448 275.911111a92.416 92.416 0 1 1-184.832 0 92.416 92.416 0 0 1 184.832 0" fill="#23ADE5"></path>
    <path d="M826.624 464.583111l-63.744 36.864v-48.64a72.206222 72.206222 0 0 0-71.68-71.936H190.72a72.192 72.192 0 0 0-71.936 71.936V748.231111a71.936 71.936 0 0 0 71.936 71.936H691.2a71.936 71.936 0 0 0 71.936-71.936v-23.808l63.488 37.888a51.2 51.2 0 0 0 76.8-44.544V508.871111a51.2 51.2 0 0 0-76.8-44.288M572.928 369.351111c79.459556 0.142222 143.985778-64.156444 144.128-143.616 0.142222-79.459556-64.156444-143.985778-143.616-144.128-79.260444-0.142222-143.701333 63.857778-144.128 143.104-0.426667 79.459556 63.644444 144.213333 143.104 144.64h0.512" fill="#48CFE5"></path>
    <path d="M425.216 512.967111l124.16 71.936a25.6 25.6 0 0 1 0 42.496l-124.16 71.68a25.6 25.6 0 0 1-37.12-21.248V534.471111a25.6 25.6 0 0 1 37.12-21.504" fill="#FDDE80"></path>
</symbol>
<symbol id="manga" viewBox="0 0 1024 1024">
    <path d="M722.204444 843.491556H170.524444a70.144 70.144 0 0 1-69.973333-69.916445V400.896a70.144 70.144 0 0 1 69.973333-69.944889H722.204444a70.144 70.144 0 0 1 69.916445 69.973333v372.622223a70.144 70.144 0 0 1-69.916445 69.944889" fill="#FDDE80"></path>
    <path d="M710.314667 341.703111c22.613333-7.338667 38.200889-29.098667 36.067555-52.792889a143.616 143.616 0 0 0-6.542222-32.142222c-39.480889-121.628444-229.12-169.045333-423.566222-105.898667C121.799111 214.016-3.783111 363.804444 35.697778 485.461333c3.413333 10.524444 7.992889 20.451556 13.596444 29.809778 12.231111 20.423111 37.603556 28.871111 60.216889 21.532445l600.803556-195.100445z" fill="#9796ED"></path>
    <path d="M281.031111 123.676444l11.235556 34.616889c4.977778 15.331556 21.617778 23.779556 36.920889 18.801778 15.331556-4.977778 23.808-21.589333 18.830222-36.920889l-11.235556-34.588444a29.383111 29.383111 0 0 0-36.920889-18.801778c-15.36 4.949333-23.808 21.589333-18.830222 36.892444" fill="#7B78EB"></path>
    <path d="M444.16 714.069333a139.747556 139.747556 0 0 0 138.296889-119.552 17.493333 17.493333 0 0 0-17.123556-20.195555h-242.346666a17.493333 17.493333 0 0 0-17.123556 20.195555 139.776 139.776 0 0 0 138.296889 119.552" fill="#FFAF66"></path>
    <path d="M704.796444 680.903111L618.951111 640.284444s12.288 55.751111 71.395556 92.672c-0.085333 0.739556-0.284444 1.422222-0.369778 2.190223-12.714667 94.549333 38.200889 179.399111 113.692444 189.553777 75.491556 10.126222 146.972444-58.311111 159.687111-152.860444 12.686222-94.520889-38.200889-179.399111-113.720888-189.525333-60.017778-8.078222-117.418667 33.649778-144.839112 98.588444z" fill="#9796ED"></path>
    <path d="M856.064 682.012444l-19.797333 99.157334a6.570667 6.570667 0 0 1-6.456889 5.290666h-17.777778a6.599111 6.599111 0 0 1-6.542222-7.537777l14.478222-99.128889a6.542222 6.542222 0 0 1 6.485333-5.660445h23.153778c4.181333 0 7.281778 3.811556 6.456889 7.879111m-22.897778 136.078223l-2.986666 16.298666a6.570667 6.570667 0 0 1-6.456889 5.404445h-20.963556a6.599111 6.599111 0 0 1-6.485333-7.651556l2.645333-16.270222a6.599111 6.599111 0 0 1 6.485333-5.546667h21.276445c4.124444 0 7.253333 3.726222 6.485333 7.765334" fill="#C5C2FF"></path>
</symbol>
<symbol id="movie" viewBox="0 0 1024 1024">
    <path d="M954.624 452.864H919.04v-168.96a37.376 37.376 0 0 0-25.6-36.608A36.608 36.608 0 0 0 846.848 281.6v170.24H199.936v-168.96a37.632 37.632 0 0 0-25.6-36.608A36.352 36.352 0 0 0 128 281.6v170.24H92.16a15.616 15.616 0 0 0-15.36 15.872v82.688a15.36 15.36 0 0 0 15.36 15.616h26.88v85.248a135.68 135.68 0 0 0 134.4 136.192h114.432a135.68 135.68 0 0 0 134.4-136.192v-20.992a7.936 7.936 0 0 1 7.68-7.936h25.6a7.68 7.68 0 0 1 7.68 7.936v20.992a135.936 135.936 0 0 0 134.4 136.192H793.6a135.68 135.68 0 0 0 134.4-136.192v-85.248h25.6a15.36 15.36 0 0 0 15.36-15.616v-81.664a15.616 15.616 0 0 0-15.36-15.872" fill="#E5E6E6"></path>
    <path d="M361.216 727.552h-102.4A87.296 87.296 0 0 1 172.8 640v-79.872a61.184 61.184 0 0 1 60.416-61.44h153.6a61.184 61.184 0 0 1 60.416 61.44V640a87.296 87.296 0 0 1-86.528 87.552" fill="#FF5C7A"></path>
    <path d="M685.568 727.552h102.4A87.296 87.296 0 0 0 873.984 640v-79.872a61.184 61.184 0 0 0-60.416-61.44h-153.6a61.184 61.184 0 0 0-60.416 61.44V640a87.296 87.296 0 0 0 86.528 87.552" fill="#2CBAE5"></path>
</symbol>
<symbol id="music" viewBox="0 0 1024 1024">
    <path d="M881.92 460.8A335.36 335.36 0 0 0 547.584 125.696h-73.216A335.616 335.616 0 0 0 139.776 460.8v313.6a18.688 18.688 0 0 0 18.432 18.688h41.984c13.568 46.336 37.888 80.384 88.576 80.384h98.304a37.376 37.376 0 0 0 37.376-36.864l1.28-284.672a36.864 36.864 0 0 0-37.12-37.12h-99.84a111.616 111.616 0 0 0-51.2 12.8v-73.216a242.432 242.432 0 0 1 241.664-241.664h67.328a242.176 242.176 0 0 1 241.408 241.664v74.496a110.592 110.592 0 0 0-54.272-14.08h-99.84a36.864 36.864 0 0 0-37.12 37.12v284.672a37.376 37.376 0 0 0 37.376 36.864h98.304c51.2 0 75.008-34.048 88.576-80.384h41.984a18.688 18.688 0 0 0 18.432-18.688z" fill="#45C7DD"></path>
    <path d="M646.141043 825.220963m0.045396-32.511969l0.273801-196.095809q0.045395-32.511968 32.557364-32.466573l1.023999 0.00143q32.511968 0.045395 32.466573 32.557364l-0.273802 196.095809q-0.045395 32.511968-32.557363 32.466573l-1.023999-0.00143q-32.511968-0.045395-32.466573-32.557364Z" fill="#FF5C7A"></path>
    <path d="M307.222608 825.246563m0.045395-32.511969l0.273801-196.095809q0.045395-32.511968 32.557364-32.466573l1.023999 0.00143q32.511968 0.045395 32.466573 32.557364l-0.273801 196.095809q-0.045395 32.511968-32.557364 32.466573l-1.023999-0.00143q-32.511968-0.045395-32.466573-32.557364Z" fill="#FF5C7A"></path>
</symbol>
<symbol id="musictop" viewBox="0 0 1024 1024">
    <path d="M128 256m25.6 0l716.8 0q25.6 0 25.6 25.6l0 512q0 25.6-25.6 25.6l-716.8 0q-25.6 0-25.6-25.6l0-512q0-25.6 25.6-25.6Z" fill="#3DA9D3"></path>
    <path d="M153.6 256h153.6v563.2H153.6a25.6 25.6 0 0 1-25.6-25.6V281.6a25.6 25.6 0 0 1 25.6-25.6zM870.4 256h-153.6v563.2h153.6a25.6 25.6 0 0 0 25.6-25.6V281.6a25.6 25.6 0 0 0-25.6-25.6z" fill="#7DD3E0"></path>
    <path d="M768 320m15.36 0l46.08 0q15.36 0 15.36 15.36l0 20.48q0 15.36-15.36 15.36l-46.08 0q-15.36 0-15.36-15.36l0-20.48q0-15.36 15.36-15.36Z" fill="#3DA9D3"></path>
    <path d="M768 448m15.36 0l46.08 0q15.36 0 15.36 15.36l0 20.48q0 15.36-15.36 15.36l-46.08 0q-15.36 0-15.36-15.36l0-20.48q0-15.36 15.36-15.36Z" fill="#3DA9D3"></path>
    <path d="M768 576m15.36 0l46.08 0q15.36 0 15.36 15.36l0 20.48q0 15.36-15.36 15.36l-46.08 0q-15.36 0-15.36-15.36l0-20.48q0-15.36 15.36-15.36Z" fill="#3DA9D3"></path>
    <path d="M768 704m15.36 0l46.08 0q15.36 0 15.36 15.36l0 20.48q0 15.36-15.36 15.36l-46.08 0q-15.36 0-15.36-15.36l0-20.48q0-15.36 15.36-15.36Z" fill="#3DA9D3"></path>
    <path d="M576 180.736c8.7808-2.6112 15.8976-1.92 21.3504 2.0736 5.4784 3.9936 11.008 9.8304 16.64 17.4592 5.6064 7.6544 12.544 16.256 20.7616 25.856 8.2432 9.5744 19.456 18.5088 33.6896 26.7776 12.2368 7.68 22.9632 12.9536 32.2048 15.7696l25.9584 7.8592c8.2176 2.432 16.128 5.5296 23.6544 9.2672 0 0 17.7408 9.984 25.5232 20.48 8.1152 10.9056 14.8736 19.6608 16.6144 30.976 1.7152 11.3408 1.6128 21.9136-0.4608 31.6928a72.7296 72.7296 0 0 1-9.5744 24.576c-4.2752 6.5792-7.8592 9.9328-10.752 9.9328-2.8672 0.0256-5.4016-1.6128-7.6032-5.0432-2.2272-3.3792-3.84-9.984-4.864-19.7632-1.6896-15.872-6.656-27.0336-14.976-33.4592-8.32-6.4256-21.3504-9.984-39.1424-10.7264a96.0512 96.0512 0 0 1-48.9216-15.616c-12.3648-8.0384-24.064-16.9984-34.9696-26.8032-8.8832-7.3728-15.7952-9.5488-20.8896-6.2976-4.992 3.2256-7.5776 8.1152-7.7312 14.7456l-0.5632 26.752-6.7072 273.792-0.7936 35.4048c0.1536 9.856-1.664 21.1968-5.4272 33.9968-3.7888 12.8-10.6752 25.2928-20.6592 37.4528-9.9328 12.16-23.0912 23.2192-39.4752 33.2288s-36.5824 17.3568-60.5952 22.0672c-24.448 4.7616-46.4128 3.584-65.8944-3.5072-19.456-7.0912-34.3808-17.4336-44.7744-31.0272-10.24-12.928-15.4368-29.5936-14.7712-47.5136 0.6912-18.048 8.8576-36.0448 24.4736-53.9648 15.616-17.92 32.4352-31.2832 50.432-40.1152a198.8096 198.8096 0 0 1 51.8144-17.7152 178.8416 178.8416 0 0 1 44.3136-3.0208c13.0048 1.0496 22.5792 2.3808 28.7488 3.9424 0 0 6.4512-280.1664 8.2944-341.6064 0.2304-12.1088 3.584-22.3232 9.9328-30.976 6.4-8.5504 14.7712-14.208 25.1392-16.9472z m160.9216 288.1792a12.8 12.8 0 0 1 0.3584 2.9696v40.96l41.728-6.912a12.8 12.8 0 0 1 14.8992 12.5952v15.0016a12.8 12.8 0 0 1-10.7008 12.6464l-45.952 7.6288 0.0256 45.3632a12.8 12.8 0 0 1-9.8304 12.4416l-15.36 3.6608a12.8 12.8 0 0 1-15.7696-12.4416V560.64l-41.1136 6.8608a12.8 12.8 0 0 1-14.8992-12.6208v-15.0016a12.8 12.8 0 0 1 10.7008-12.6464l45.312-7.552v-44.1344a12.8 12.8 0 0 1 9.8304-12.4672l15.36-3.6352a12.8 12.8 0 0 1 15.4112 9.472z" fill="#FFD469"></path>
    <path d="M179.2 320m15.36 0l46.08 0q15.36 0 15.36 15.36l0 20.48q0 15.36-15.36 15.36l-46.08 0q-15.36 0-15.36-15.36l0-20.48q0-15.36 15.36-15.36Z" fill="#3DA9D3"></path>
    <path d="M179.2 448m15.36 0l46.08 0q15.36 0 15.36 15.36l0 20.48q0 15.36-15.36 15.36l-46.08 0q-15.36 0-15.36-15.36l0-20.48q0-15.36 15.36-15.36Z" fill="#3DA9D3"></path>
    <path d="M179.2 576m15.36 0l46.08 0q15.36 0 15.36 15.36l0 20.48q0 15.36-15.36 15.36l-46.08 0q-15.36 0-15.36-15.36l0-20.48q0-15.36 15.36-15.36Z" fill="#3DA9D3"></path>
    <path d="M179.2 704m15.36 0l46.08 0q15.36 0 15.36 15.36l0 20.48q0 15.36-15.36 15.36l-46.08 0q-15.36 0-15.36-15.36l0-20.48q0-15.36 15.36-15.36Z" fill="#3DA9D3"></path>
</symbol>
<symbol id="information" viewBox="0 0 1024 1024">
    <path d="M760.685714 768a21.942857 21.942857 0 0 0 19.836343 21.840457L782.628571 789.942857a21.942857 21.942857 0 0 0 21.840458-19.836343L804.571429 768V321.828571h29.257142a58.514286 58.514286 0 0 1 58.514286 58.514286v438.857143a58.514286 58.514286 0 0 1-58.514286 58.514286H190.171429a58.514286 58.514286 0 0 1-58.514286-58.514286V204.8a58.514286 58.514286 0 0 1 58.514286-58.514286h512a58.514286 58.514286 0 0 1 58.514285 58.514286v563.2z" fill="#7DD3E0"></path>
    <path d="M219.428571 234.057143m29.257143 0l394.971429 0q29.257143 0 29.257143 29.257143l0 263.314285q0 29.257143-29.257143 29.257143l-394.971429 0q-29.257143 0-29.257143-29.257143l0-263.314285q0-29.257143 29.257143-29.257143Z" fill="#3DA9D3"></path>
    <path d="M404.772571 300.514743l129.462858 80.925257a15.945143 15.945143 0 0 1 0 27.062857l-129.462858 80.925257a15.945143 15.945143 0 0 1-24.429714-13.531428V314.046171a15.945143 15.945143 0 0 1 24.429714-13.531428z" fill="#FFD469"></path>
    <path d="M219.428571 614.4m29.257143 0l394.971429 0q29.257143 0 29.257143 29.257143l0 0q0 29.257143-29.257143 29.257143l-394.971429 0q-29.257143 0-29.257143-29.257143l0 0q0-29.257143 29.257143-29.257143Z" fill="#3DA9D3"></path>
    <path d="M219.428571 731.428571m29.257143 0l219.428572 0q29.257143 0 29.257143 29.257143l0 0q0 29.257143-29.257143 29.257143l-219.428572 0q-29.257143 0-29.257143-29.257143l0 0q0-29.257143 29.257143-29.257143Z" fill="#3DA9D3"></path>
</symbol>
<symbol id="search" viewBox="0 0 24 24">
    <path d="M9.5,3A6.5,6.5 0 0,1 16,9.5C16,11.11 15.41,12.59 14.44,13.73L14.71,14H15.5L20.5,19L19,20.5L14,15.5V14.71L13.73,14.44C12.59,15.41 11.11,16 9.5,16A6.5,6.5 0 0,1 3,9.5A6.5,6.5 0 0,1 9.5,3M9.5,5C7,5 5,7 5,9.5C5,12 7,14 9.5,14C12,14 14,12 14,9.5C14,7 12,5 9.5,5Z" fill="#fff"></path>
</symbol>
<symbol id="sport" viewBox="0 0 1024 1024">
    <path d="M497.8944 517.8624l23.8848 29.2608a58.5728 58.5728 0 0 1-5.6064 80.0512L241.9456 880.7424a47.7184 47.7184 0 0 1-65.6128-0.768 49.8176 49.8176 0 0 1-4.3008-66.816l108.5696-136.3712 126.1056-158.3616a58.5728 58.5728 0 0 1 91.1872-0.5632z" fill="#1BAD8B"></path>
    <path d="M698.9312 153.6a117.1456 117.1456 0 0 1 11.4176 233.728l60.416 45.9008c4.352 3.328 10.1632 3.9168 15.104 1.5872l73.6256-34.6368a46.2848 46.2848 0 0 1 59.1104 17.5872 44.3392 44.3392 0 0 1-11.9296 59.3152l-125.952 90.2656a58.5728 58.5728 0 0 1-65.9456 1.5616l-66.048-42.752-44.1344 47.7696 70.6048 83.328c1.664 1.9456 3.2 4.0192 4.608 6.1952l1.9456 3.3024a58.5728 58.5728 0 0 1-22.8608 79.616l-192.1024 106.3424a49.3824 49.3824 0 0 1-65.7408-16.9984 52.096 52.096 0 0 1 11.904-68.5824l105.5488-83.1744-106.2912-68.3008-1.536-1.024a59.7504 59.7504 0 0 1-0.896-0.6144l-13.824-7.168a58.5728 58.5728 0 0 1-23.296-82.2784l71.68-118.8864-30.72-13.824a14.6432 14.6432 0 0 0-14.336 1.3312l-80.4864 55.6032a48.8704 48.8704 0 0 1-62.6688-5.9648 39.3472 39.3472 0 0 1 1.792-56.8576l128.2816-115.1488a58.5728 58.5728 0 0 1 57.4464-12.032l143.5392 47.2576A117.1456 117.1456 0 0 1 698.9312 153.6z" fill="#57D59A"></path>
</symbol>
<symbol id="spread" viewBox="0 0 1024 1024">
    <path d="M324.5568 660.31616v56.832c0 30.19264 24.4736 54.67136 54.67136 54.67136 30.19264 0 54.67136-24.4736 54.67136-54.67136v-14.04928l-109.34272-42.78272z m186.4704 72.96512C503.0656 799.0016 447.09376 849.92 379.22816 849.92c-73.32864 0-132.77184-59.4432-132.77184-132.77184v-87.3984l-117.15584-45.83936v0.06656a39.05024 39.05024 0 1 1-78.10048 0V411.71968a39.05024 39.05024 0 0 1 78.10048 0v0.06656l499.85024-195.59424v-23.54176a39.05024 39.05024 0 1 1 78.1056 0v610.39616a39.05024 39.05024 0 1 1-78.1056 0v-23.54176l-118.1184-46.22336z" fill="#FFD778"></path>
    <path d="M808.78592 458.73152h124.96384A39.05024 39.05024 0 0 1 972.8 497.78176v0.13312a39.05024 39.05024 0 0 1-39.05024 39.05024h-124.96384a39.05024 39.05024 0 0 1-39.05024-39.05024v-0.13312a39.05024 39.05024 0 0 1 39.05024-39.05024z m-3.31264 130.43712l108.25728 62.61248a39.05024 39.05024 0 0 1 14.2848 53.2992l-0.05632 0.1024a39.04512 39.04512 0 0 1-53.376 14.30016l-108.25728-62.6176a39.05024 39.05024 0 0 1-14.2848-53.2992l0.05632-0.09728a39.04512 39.04512 0 0 1 53.376-14.30016z m-39.14752-250.3424l108.25728-62.61248a39.04512 39.04512 0 0 1 53.376 14.30528l0.0512 0.09216a39.05024 39.05024 0 0 1-14.2848 53.30432L805.4784 406.528a39.04512 39.04512 0 0 1-53.376-14.30016l-0.0512-0.09728a39.05024 39.05024 0 0 1 14.27968-53.2992z" fill="#FB813A"></path>
</symbol>
<symbol id="tech" viewBox="0 0 1024 1024">
    <path d="M510.208 683.264h-114.176l-50.688 209.408H674.816l-50.688-209.408h-113.92z" fill="#FFD778"></path>
    <path d="M535.552 150.528v-28.16a25.6 25.6 0 1 0-51.2 0v28.16a271.872 271.872 0 0 0-244.992 269.568v97.28a25.6 25.6 0 0 0 26.88 26.88h487.936a25.6 25.6 0 0 0 25.6-26.88v-97.28a271.616 271.616 0 0 0-244.224-269.568z" fill="#48CFE5"></path>
    <path d="M125.696 464.64m103.168 0l562.432 0q103.168 0 103.168 103.168l0 15.36q0 103.168-103.168 103.168l-562.432 0q-103.168 0-103.168-103.168l0-15.36q0-103.168 103.168-103.168Z" fill="#2CBAE5"></path>
    <path d="M742.4 537.6a37.632 37.632 0 1 0 37.632 37.632A37.376 37.376 0 0 0 742.4 537.6zM276.736 537.6a37.632 37.632 0 1 0 37.632 37.632A37.632 37.632 0 0 0 276.736 537.6z" fill="#FFD778"></path>
</symbol>
<symbol id="tv" viewBox="0 0 1024 1024">
    <path d="M271.616 247.808a212.224 212.224 0 0 0-49.664 172.8l25.6 126.72c56.832 21.76 60.16 87.552 67.328 149.248a1167.872 1167.872 0 0 1 190.208-14.08 1247.488 1247.488 0 0 1 196.096 14.08c7.68-61.696 4.352-126.72 59.904-148.736l25.6-128a211.712 211.712 0 0 0-49.92-172.288 218.624 218.624 0 0 0-165.12-74.752h-134.912a218.624 218.624 0 0 0-165.12 74.752" fill="#FFB161"></path>
    <path d="M505.088 412.672l-34.816-34.56a19.456 19.456 0 0 0-27.392 27.392l25.6 25.6-25.6 25.6a19.456 19.456 0 0 0 27.392 27.392l34.816-34.56 35.072 34.56a18.688 18.688 0 0 0 13.568 5.632 19.456 19.456 0 0 0 13.824-33.024l-25.6-25.6 25.6-25.6a19.456 19.456 0 0 0-13.824-33.024 18.688 18.688 0 0 0-13.568 5.632z" fill="#FFE494"></path>
    <path d="M822.016 482.56a130.816 130.816 0 0 0-133.888 128v68.864l-368.128 1.536v-69.376a130.304 130.304 0 0 0-120.32-128h-13.568A81.92 81.92 0 0 0 102.4 563.2a76.8 76.8 0 0 0 0 13.312 79.104 79.104 0 0 0 38.912 54.784l8.96 4.352h2.304a25.6 25.6 0 0 1 15.36 22.016v63.744a112.384 112.384 0 0 0 80.896 105.472 51.2 51.2 0 0 0 98.816 5.888h313.088a51.2 51.2 0 0 0 98.816-5.888 112.384 112.384 0 0 0 79.104-105.472V650.752a25.6 25.6 0 0 1 8.192-11.52h1.536l4.608-2.816a80.384 80.384 0 0 0 51.2-61.44v-12.032a81.92 81.92 0 0 0-83.712-79.616" fill="#FB952C"></path>
</symbol>
<symbol id="upload" viewBox="0 0 785 886">
    <path d="M582,374L582,566C582,585.333 576.167,600.833 564.5,612.5C552.833,624.167 537.333,630 518,630L262,630C242.667,630 227.167,624.167 215.5,612.5C203.833,600.833 198,585.333 198,566L198,374L32,374C22,374 14.1667,371.167 8.5,365.5C2.83333,359.833 0,352 0,342C0,338.667 1.16666,334.5 3.5,329.5C5.83333,324.5 8.66666,320 12,316L371,9C377.667,3.00006 385.167,6.10352e-005 393.5,0C401.833,6.10352e-005 409.333,3.00006 416,9L774,316C780,322.667 783.333,330.167 784,338.5C784.667,346.833 783.333,354.333 780,361L764,370C760,372.667 754.667,374 748,374ZM70,758L710,758C729.333,758 744.833,763.833 756.5,775.5C768.167,787.167 774,802.667 774,822C774,841.333 768.167,856.833 756.5,868.5C744.833,880.167 729.333,886 710,886L70,886C50.6667,886 35.1667,880.167 23.5,868.5C11.8333,856.833 6,841.333 6,822C6,802.667 11.8333,787.167 23.5,775.5C35.1667,763.833 50.6667,758 70,758Z"></path>
</symbol>
<symbol id="verified" viewBox="0 0 1024 1024">
   <path d="M512 512m-512 0a512 512 0 1 0 1024 0 512 512 0 1 0-1024 0Z" fill="#FFFFFF"></path>
   <path d="M512 512m-418.909091 0a418.909091 418.909091 0 1 0 837.818182 0 418.909091 418.909091 0 1 0-837.818182 0Z" fill="#FFC62E"></path>
   <path d="M474.112 763.950545a33.28 33.28 0 0 1-14.056727 4.049455 21.038545 21.038545 0 0 1-21.317818-20.805818 19.549091 19.549091 0 0 1 1.210181-5.864727l40.494546-187.438546-167.656727 0.325818a21.224727 21.224727 0 0 1-21.876364-20.805818 20.433455 20.433455 0 0 1 9.495273-16.849454l250.181818-255.767273c4.608-2.792727 9.541818-4.747636 14.661818-4.794182a21.131636 21.131636 0 0 1 21.364364 20.852364 19.968 19.968 0 0 1-2.792728 9.774545l-40.215272 184.32h167.842909a21.178182 21.178182 0 0 1 21.643636 20.852364 20.293818 20.293818 0 0 1-9.495273 16.942545l-249.483636 255.208727z" fill="#FFFFFF">
   </path>
</symbol>
<symbol id="verified2" viewBox="0 0 1024 1024">
    <path d="M512 512m-512 0a512 512 0 1 0 1024 0 512 512 0 1 0-1024 0Z" fill="#FFFFFF"></path>
    <path d="M512 512m-418.909091 0a418.909091 418.909091 0 1 0 837.818182 0 418.909091 418.909091 0 1 0-837.818182 0Z" fill="#4AC7FF"></path>
    <path d="M474.112 763.950545a33.28 33.28 0 0 1-14.056727 4.049455 21.038545 21.038545 0 0 1-21.317818-20.805818 19.549091 19.549091 0 0 1 1.210181-5.864727l40.494546-187.438546-167.656727 0.325818a21.224727 21.224727 0 0 1-21.876364-20.805818 20.433455 20.433455 0 0 1 9.495273-16.849454l250.181818-255.767273c4.608-2.792727 9.541818-4.747636 14.661818-4.794182a21.131636 21.131636 0 0 1 21.364364 20.852364 19.968 19.968 0 0 1-2.792728 9.774545l-40.215272 184.32h167.842909a21.178182 21.178182 0 0 1 21.643636 20.852364 20.293818 20.293818 0 0 1-9.495273 16.942545l-249.483636 255.208727z" fill="#FFFFFF"></path>
</symbol>
</svg>